<svg width="968" height="356" viewBox="0 0 968 356" fill="none" xmlns="http://www.w3.org/2000/svg">
<line x1="55" y1="9.5" x2="968" y2="9.50008" stroke="#DBDEE6" stroke-dasharray="4 4"/>
<line x1="55" y1="129.5" x2="968" y2="129.5" stroke="#DBDEE6" stroke-dasharray="4 4"/>
<line x1="55" y1="249.5" x2="968" y2="249.5" stroke="#DBDEE6" stroke-dasharray="4 4"/>
<line x1="55" y1="69.5" x2="968" y2="69.5" stroke="#DBDEE6" stroke-dasharray="4 4"/>
<line x1="55" y1="189.5" x2="968" y2="189.5" stroke="#DBDEE6" stroke-dasharray="4 4"/>
<line x1="55" y1="309.5" x2="968" y2="309.5" stroke="#DBDEE6" stroke-dasharray="4 4"/>
<path d="M0.532 311.974C0.532 315.04 1.974 317.154 4.368 317.154C6.748 317.154 8.19 315.04 8.19 311.974C8.19 308.908 6.748 306.794 4.368 306.794C1.974 306.794 0.532 308.908 0.532 311.974ZM1.876 311.974C1.876 309.622 2.73 307.97 4.368 307.97C5.992 307.97 6.86 309.622 6.86 311.974C6.86 314.326 5.992 315.978 4.368 315.978C2.73 315.978 1.876 314.326 1.876 311.974Z" fill="#4D5760"/>
<path d="M210.08 340.892C209.982 342.054 209.59 342.46 208.4 342.544L207.322 342.614V343.608H209.744V351H211.088V340.892H210.08ZM216.45 340.794C214.63 340.794 213.258 341.872 213.258 343.482C213.258 344.49 213.832 345.274 214.826 345.666C213.636 346.03 212.74 346.954 212.74 348.228C212.74 349.992 214.308 351.14 216.45 351.14C218.606 351.14 220.174 349.992 220.174 348.228C220.174 346.954 219.278 346.03 218.074 345.666C219.082 345.274 219.656 344.49 219.656 343.482C219.656 341.872 218.284 340.794 216.45 340.794ZM216.45 345.134C215.274 345.134 214.462 344.49 214.462 343.496C214.462 342.516 215.274 341.858 216.45 341.858C217.64 341.858 218.438 342.516 218.438 343.496C218.438 344.49 217.64 345.134 216.45 345.134ZM216.45 346.24C217.864 346.24 218.872 347.024 218.872 348.144C218.872 349.292 217.864 350.076 216.45 350.076C215.036 350.076 214.056 349.292 214.056 348.144C214.056 347.024 215.036 346.24 216.45 346.24ZM224.69 351H227.882C230.934 351 232.866 349.04 232.866 345.974C232.866 342.908 230.934 340.948 227.882 340.948H224.69V351ZM226.006 349.838V342.11H227.868C230.164 342.11 231.55 343.622 231.55 345.974C231.55 348.312 230.164 349.838 227.882 349.838H226.006ZM237.376 351.154C238.832 351.154 239.938 350.356 240.386 349.054L239.28 348.662C239.056 349.53 238.356 350.062 237.376 350.062C236.102 350.062 235.22 349.082 235.15 347.542H240.442V347.122C240.442 345.092 239.364 343.538 237.32 343.538C235.332 343.538 233.946 345.162 233.946 347.346C233.946 349.6 235.346 351.154 237.376 351.154ZM237.306 344.616C238.58 344.616 239.14 345.54 239.168 346.576H235.22C235.444 345.33 236.242 344.616 237.306 344.616ZM242.767 347.346C242.767 345.666 243.663 344.63 244.965 344.63C245.973 344.63 246.575 345.288 246.785 346.184L247.877 345.638C247.527 344.42 246.491 343.538 244.965 343.538C242.921 343.538 241.507 345.078 241.507 347.346C241.507 349.6 242.921 351.154 244.965 351.154C246.491 351.154 247.555 350.23 247.905 349.012L246.785 348.494C246.575 349.404 245.973 350.048 244.965 350.048C243.663 350.048 242.767 349.012 242.767 347.346Z" fill="#4D5760"/>
<path d="M321.08 340.892C320.982 342.054 320.59 342.46 319.4 342.544L318.322 342.614V343.608H320.744V351H322.088V340.892H321.08ZM323.782 348.83C324.216 350.216 325.224 351.154 326.96 351.154C329.284 351.154 330.978 349.068 330.978 345.876C330.978 343.09 329.816 340.794 327.24 340.794C325.266 340.794 323.754 342.292 323.754 344.252C323.754 346.142 325.168 347.598 327.03 347.598C328.304 347.598 329.284 346.898 329.746 346.016V346.156C329.746 348.508 328.556 350.034 327.002 350.034C325.84 350.034 325.168 349.334 324.888 348.368L323.782 348.83ZM324.986 344.182C324.986 342.88 325.966 341.9 327.24 341.9C328.514 341.9 329.494 342.88 329.494 344.182C329.494 345.484 328.486 346.492 327.226 346.492C325.952 346.492 324.986 345.484 324.986 344.182ZM335.567 351H338.759C341.811 351 343.743 349.04 343.743 345.974C343.743 342.908 341.811 340.948 338.759 340.948H335.567V351ZM336.883 349.838V342.11H338.745C341.041 342.11 342.427 343.622 342.427 345.974C342.427 348.312 341.041 349.838 338.759 349.838H336.883ZM348.253 351.154C349.709 351.154 350.815 350.356 351.263 349.054L350.157 348.662C349.933 349.53 349.233 350.062 348.253 350.062C346.979 350.062 346.097 349.082 346.027 347.542H351.319V347.122C351.319 345.092 350.241 343.538 348.197 343.538C346.209 343.538 344.823 345.162 344.823 347.346C344.823 349.6 346.223 351.154 348.253 351.154ZM348.183 344.616C349.457 344.616 350.017 345.54 350.045 346.576H346.097C346.321 345.33 347.119 344.616 348.183 344.616ZM353.644 347.346C353.644 345.666 354.54 344.63 355.842 344.63C356.85 344.63 357.452 345.288 357.662 346.184L358.754 345.638C358.404 344.42 357.368 343.538 355.842 343.538C353.798 343.538 352.384 345.078 352.384 347.346C352.384 349.6 353.798 351.154 355.842 351.154C357.368 351.154 358.432 350.23 358.782 349.012L357.662 348.494C357.452 349.404 356.85 350.048 355.842 350.048C354.54 350.048 353.644 349.012 353.644 347.346Z" fill="#4D5760"/>
<path d="M429.476 349.894V351H436.392V349.824H431.31L433.578 347.976C435.02 346.814 436.196 345.638 436.196 343.93C436.196 342.082 434.908 340.794 432.878 340.794C431.03 340.794 429.56 342.152 429.56 343.944C429.56 344.336 429.63 344.672 429.784 345.106H431.044C430.904 344.756 430.82 344.378 430.82 344.014C430.82 342.866 431.646 341.942 432.85 341.942C434.082 341.942 434.88 342.782 434.88 344.014C434.88 345.33 433.816 346.296 432.444 347.43L429.476 349.894ZM437.27 345.974C437.27 349.04 438.712 351.154 441.106 351.154C443.486 351.154 444.928 349.04 444.928 345.974C444.928 342.908 443.486 340.794 441.106 340.794C438.712 340.794 437.27 342.908 437.27 345.974ZM438.614 345.974C438.614 343.622 439.468 341.97 441.106 341.97C442.73 341.97 443.598 343.622 443.598 345.974C443.598 348.326 442.73 349.978 441.106 349.978C439.468 349.978 438.614 348.326 438.614 345.974ZM449.52 351H452.712C455.764 351 457.696 349.04 457.696 345.974C457.696 342.908 455.764 340.948 452.712 340.948H449.52V351ZM450.836 349.838V342.11H452.698C454.994 342.11 456.38 343.622 456.38 345.974C456.38 348.312 454.994 349.838 452.712 349.838H450.836ZM462.206 351.154C463.662 351.154 464.768 350.356 465.216 349.054L464.11 348.662C463.886 349.53 463.186 350.062 462.206 350.062C460.932 350.062 460.05 349.082 459.98 347.542H465.272V347.122C465.272 345.092 464.194 343.538 462.15 343.538C460.162 343.538 458.776 345.162 458.776 347.346C458.776 349.6 460.176 351.154 462.206 351.154ZM462.136 344.616C463.41 344.616 463.97 345.54 463.998 346.576H460.05C460.274 345.33 461.072 344.616 462.136 344.616ZM467.597 347.346C467.597 345.666 468.493 344.63 469.795 344.63C470.803 344.63 471.405 345.288 471.615 346.184L472.707 345.638C472.357 344.42 471.321 343.538 469.795 343.538C467.751 343.538 466.337 345.078 466.337 347.346C466.337 349.6 467.751 351.154 469.795 351.154C471.321 351.154 472.385 350.23 472.735 349.012L471.615 348.494C471.405 349.404 470.803 350.048 469.795 350.048C468.493 350.048 467.597 349.012 467.597 347.346Z" fill="#4D5760"/>
<path d="M543.476 349.894V351H550.392V349.824H545.31L547.578 347.976C549.02 346.814 550.196 345.638 550.196 343.93C550.196 342.082 548.908 340.794 546.878 340.794C545.03 340.794 543.56 342.152 543.56 343.944C543.56 344.336 543.63 344.672 543.784 345.106H545.044C544.904 344.756 544.82 344.378 544.82 344.014C544.82 342.866 545.646 341.942 546.85 341.942C548.082 341.942 548.88 342.782 548.88 344.014C548.88 345.33 547.816 346.296 546.444 347.43L543.476 349.894ZM553.9 340.892C553.802 342.054 553.41 342.46 552.22 342.544L551.142 342.614V343.608H553.564V351H554.908V340.892H553.9ZM560.143 351H563.335C566.387 351 568.319 349.04 568.319 345.974C568.319 342.908 566.387 340.948 563.335 340.948H560.143V351ZM561.459 349.838V342.11H563.321C565.617 342.11 567.003 343.622 567.003 345.974C567.003 348.312 565.617 349.838 563.335 349.838H561.459ZM572.83 351.154C574.286 351.154 575.392 350.356 575.84 349.054L574.734 348.662C574.51 349.53 573.81 350.062 572.83 350.062C571.556 350.062 570.674 349.082 570.604 347.542H575.896V347.122C575.896 345.092 574.818 343.538 572.774 343.538C570.786 343.538 569.4 345.162 569.4 347.346C569.4 349.6 570.8 351.154 572.83 351.154ZM572.76 344.616C574.034 344.616 574.594 345.54 574.622 346.576H570.674C570.898 345.33 571.696 344.616 572.76 344.616ZM578.22 347.346C578.22 345.666 579.116 344.63 580.418 344.63C581.426 344.63 582.028 345.288 582.238 346.184L583.33 345.638C582.98 344.42 581.944 343.538 580.418 343.538C578.374 343.538 576.96 345.078 576.96 347.346C576.96 349.6 578.374 351.154 580.418 351.154C581.944 351.154 583.008 350.23 583.358 349.012L582.238 348.494C582.028 349.404 581.426 350.048 580.418 350.048C579.116 350.048 578.22 349.012 578.22 347.346Z" fill="#4D5760"/>
<path d="M654.476 349.894V351H661.392V349.824H656.31L658.578 347.976C660.02 346.814 661.196 345.638 661.196 343.93C661.196 342.082 659.908 340.794 657.878 340.794C656.03 340.794 654.56 342.152 654.56 343.944C654.56 344.336 654.63 344.672 654.784 345.106H656.044C655.904 344.756 655.82 344.378 655.82 344.014C655.82 342.866 656.646 341.942 657.85 341.942C659.082 341.942 659.88 342.782 659.88 344.014C659.88 345.33 658.816 346.296 657.444 347.43L654.476 349.894ZM662.296 349.894V351H669.212V349.824H664.13L666.398 347.976C667.84 346.814 669.016 345.638 669.016 343.93C669.016 342.082 667.728 340.794 665.698 340.794C663.85 340.794 662.38 342.152 662.38 343.944C662.38 344.336 662.45 344.672 662.604 345.106H663.864C663.724 344.756 663.64 344.378 663.64 344.014C663.64 342.866 664.466 341.942 665.67 341.942C666.902 341.942 667.7 342.782 667.7 344.014C667.7 345.33 666.636 346.296 665.264 347.43L662.296 349.894ZM673.7 351H676.892C679.944 351 681.876 349.04 681.876 345.974C681.876 342.908 679.944 340.948 676.892 340.948H673.7V351ZM675.016 349.838V342.11H676.878C679.174 342.11 680.56 343.622 680.56 345.974C680.56 348.312 679.174 349.838 676.892 349.838H675.016ZM686.386 351.154C687.842 351.154 688.948 350.356 689.396 349.054L688.29 348.662C688.066 349.53 687.366 350.062 686.386 350.062C685.112 350.062 684.23 349.082 684.16 347.542H689.452V347.122C689.452 345.092 688.374 343.538 686.33 343.538C684.342 343.538 682.956 345.162 682.956 347.346C682.956 349.6 684.356 351.154 686.386 351.154ZM686.316 344.616C687.59 344.616 688.15 345.54 688.178 346.576H684.23C684.454 345.33 685.252 344.616 686.316 344.616ZM691.777 347.346C691.777 345.666 692.673 344.63 693.975 344.63C694.983 344.63 695.585 345.288 695.795 346.184L696.887 345.638C696.537 344.42 695.501 343.538 693.975 343.538C691.931 343.538 690.517 345.078 690.517 347.346C690.517 349.6 691.931 351.154 693.975 351.154C695.501 351.154 696.565 350.23 696.915 349.012L695.795 348.494C695.585 349.404 694.983 350.048 693.975 350.048C692.673 350.048 691.777 349.012 691.777 347.346Z" fill="#4D5760"/>
<path d="M767.476 349.894V351H774.392V349.824H769.31L771.578 347.976C773.02 346.814 774.196 345.638 774.196 343.93C774.196 342.082 772.908 340.794 770.878 340.794C769.03 340.794 767.56 342.152 767.56 343.944C767.56 344.336 767.63 344.672 767.784 345.106H769.044C768.904 344.756 768.82 344.378 768.82 344.014C768.82 342.866 769.646 341.942 770.85 341.942C772.082 341.942 772.88 342.782 772.88 344.014C772.88 345.33 771.816 346.296 770.444 347.43L767.476 349.894ZM778.785 351.154C780.871 351.154 782.229 349.838 782.229 348.186C782.229 346.8 781.361 346.03 780.353 345.75C781.207 345.47 781.907 344.63 781.907 343.538C781.907 341.942 780.773 340.794 778.813 340.794C776.881 340.794 775.579 342.068 775.313 343.748L776.517 343.986C776.741 342.726 777.581 341.928 778.785 341.928C779.933 341.928 780.647 342.572 780.647 343.608C780.647 344.616 779.863 345.204 778.701 345.204H777.609V346.338H778.687C779.961 346.338 780.927 346.926 780.927 348.116C780.927 349.306 780.045 350.034 778.771 350.034C777.511 350.034 776.517 349.222 776.321 347.822L775.019 348.102C775.341 350.104 776.867 351.154 778.785 351.154ZM786.754 351H789.946C792.998 351 794.93 349.04 794.93 345.974C794.93 342.908 792.998 340.948 789.946 340.948H786.754V351ZM788.07 349.838V342.11H789.932C792.228 342.11 793.614 343.622 793.614 345.974C793.614 348.312 792.228 349.838 789.946 349.838H788.07ZM799.441 351.154C800.897 351.154 802.003 350.356 802.451 349.054L801.345 348.662C801.121 349.53 800.421 350.062 799.441 350.062C798.167 350.062 797.285 349.082 797.215 347.542H802.507V347.122C802.507 345.092 801.429 343.538 799.385 343.538C797.397 343.538 796.011 345.162 796.011 347.346C796.011 349.6 797.411 351.154 799.441 351.154ZM799.371 344.616C800.645 344.616 801.205 345.54 801.233 346.576H797.285C797.509 345.33 798.307 344.616 799.371 344.616ZM804.831 347.346C804.831 345.666 805.727 344.63 807.029 344.63C808.037 344.63 808.639 345.288 808.849 346.184L809.941 345.638C809.591 344.42 808.555 343.538 807.029 343.538C804.985 343.538 803.571 345.078 803.571 347.346C803.571 349.6 804.985 351.154 807.029 351.154C808.555 351.154 809.619 350.23 809.969 349.012L808.849 348.494C808.639 349.404 808.037 350.048 807.029 350.048C805.727 350.048 804.831 349.012 804.831 347.346Z" fill="#4D5760"/>
<path d="M880.476 349.894V351H887.392V349.824H882.31L884.578 347.976C886.02 346.814 887.196 345.638 887.196 343.93C887.196 342.082 885.908 340.794 883.878 340.794C882.03 340.794 880.56 342.152 880.56 343.944C880.56 344.336 880.63 344.672 880.784 345.106H882.044C881.904 344.756 881.82 344.378 881.82 344.014C881.82 342.866 882.646 341.942 883.85 341.942C885.082 341.942 885.88 342.782 885.88 344.014C885.88 345.33 884.816 346.296 883.444 347.43L880.476 349.894ZM893.752 351V348.382H895.712V347.262H893.766V340.948H892.058L887.648 347.332V348.382H892.506V351H893.752ZM889.02 347.262L892.492 342.236V347.262H889.02ZM899.919 351H903.111C906.163 351 908.095 349.04 908.095 345.974C908.095 342.908 906.163 340.948 903.111 340.948H899.919V351ZM901.235 349.838V342.11H903.097C905.393 342.11 906.779 343.622 906.779 345.974C906.779 348.312 905.393 349.838 903.111 349.838H901.235ZM912.605 351.154C914.061 351.154 915.167 350.356 915.615 349.054L914.509 348.662C914.285 349.53 913.585 350.062 912.605 350.062C911.331 350.062 910.449 349.082 910.379 347.542H915.671V347.122C915.671 345.092 914.593 343.538 912.549 343.538C910.561 343.538 909.175 345.162 909.175 347.346C909.175 349.6 910.575 351.154 912.605 351.154ZM912.535 344.616C913.809 344.616 914.369 345.54 914.397 346.576H910.449C910.673 345.33 911.471 344.616 912.535 344.616ZM917.995 347.346C917.995 345.666 918.891 344.63 920.193 344.63C921.201 344.63 921.803 345.288 922.013 346.184L923.105 345.638C922.755 344.42 921.719 343.538 920.193 343.538C918.149 343.538 916.735 345.078 916.735 347.346C916.735 349.6 918.149 351.154 920.193 351.154C921.719 351.154 922.783 350.23 923.133 349.012L922.013 348.494C921.803 349.404 921.201 350.048 920.193 350.048C918.891 350.048 917.995 349.012 917.995 347.346Z" fill="#4D5760"/>
<path d="M0.476 255.894V257H7.392V255.824H2.31L4.578 253.976C6.02 252.814 7.196 251.638 7.196 249.93C7.196 248.082 5.908 246.794 3.878 246.794C2.03 246.794 0.56 248.152 0.56 249.944C0.56 250.336 0.63 250.672 0.784 251.106H2.044C1.904 250.756 1.82 250.378 1.82 250.014C1.82 248.866 2.646 247.942 3.85 247.942C5.082 247.942 5.88 248.782 5.88 250.014C5.88 251.33 4.816 252.296 3.444 253.43L0.476 255.894ZM8.27028 251.974C8.27028 255.04 9.71228 257.154 12.1063 257.154C14.4863 257.154 15.9283 255.04 15.9283 251.974C15.9283 248.908 14.4863 246.794 12.1063 246.794C9.71228 246.794 8.27028 248.908 8.27028 251.974ZM9.61428 251.974C9.61428 249.622 10.4683 247.97 12.1063 247.97C13.7303 247.97 14.5983 249.622 14.5983 251.974C14.5983 254.326 13.7303 255.978 12.1063 255.978C10.4683 255.978 9.61428 254.326 9.61428 251.974ZM16.9929 251.974C16.9929 255.04 18.4349 257.154 20.8289 257.154C23.2089 257.154 24.6509 255.04 24.6509 251.974C24.6509 248.908 23.2089 246.794 20.8289 246.794C18.4349 246.794 16.9929 248.908 16.9929 251.974ZM18.3369 251.974C18.3369 249.622 19.1909 247.97 20.8289 247.97C22.4529 247.97 23.3209 249.622 23.3209 251.974C23.3209 254.326 22.4529 255.978 20.8289 255.978C19.1909 255.978 18.3369 254.326 18.3369 251.974Z" fill="#4D5760"/>
<path d="M6.314 197V194.382H8.274V193.262H6.328V186.948H4.62L0.21 193.332V194.382H5.068V197H6.314ZM1.582 193.262L5.054 188.236V193.262H1.582ZM8.89919 191.974C8.89919 195.04 10.3412 197.154 12.7352 197.154C15.1152 197.154 16.5572 195.04 16.5572 191.974C16.5572 188.908 15.1152 186.794 12.7352 186.794C10.3412 186.794 8.89919 188.908 8.89919 191.974ZM10.2432 191.974C10.2432 189.622 11.0972 187.97 12.7352 187.97C14.3592 187.97 15.2272 189.622 15.2272 191.974C15.2272 194.326 14.3592 195.978 12.7352 195.978C11.0972 195.978 10.2432 194.326 10.2432 191.974ZM17.6218 191.974C17.6218 195.04 19.0638 197.154 21.4578 197.154C23.8378 197.154 25.2798 195.04 25.2798 191.974C25.2798 188.908 23.8378 186.794 21.4578 186.794C19.0638 186.794 17.6218 188.908 17.6218 191.974ZM18.9658 191.974C18.9658 189.622 19.8198 187.97 21.4578 187.97C23.0818 187.97 23.9498 189.622 23.9498 191.974C23.9498 194.326 23.0818 195.978 21.4578 195.978C19.8198 195.978 18.9658 194.326 18.9658 191.974Z" fill="#4D5760"/>
<path d="M7.728 129.118C7.294 127.732 6.286 126.794 4.55 126.794C2.226 126.794 0.532 128.88 0.532 132.072C0.532 134.858 1.694 137.154 4.27 137.154C6.244 137.154 7.756 135.656 7.756 133.696C7.756 131.806 6.342 130.35 4.48 130.35C3.206 130.35 2.226 131.05 1.764 131.932V131.792C1.764 129.44 2.954 127.914 4.508 127.914C5.67 127.914 6.342 128.614 6.622 129.58L7.728 129.118ZM6.524 133.766C6.524 135.068 5.544 136.048 4.27 136.048C2.996 136.048 2.016 135.068 2.016 133.766C2.016 132.464 3.024 131.456 4.284 131.456C5.558 131.456 6.524 132.464 6.524 133.766ZM8.77614 131.974C8.77614 135.04 10.2181 137.154 12.6121 137.154C14.9921 137.154 16.4341 135.04 16.4341 131.974C16.4341 128.908 14.9921 126.794 12.6121 126.794C10.2181 126.794 8.77614 128.908 8.77614 131.974ZM10.1201 131.974C10.1201 129.622 10.9741 127.97 12.6121 127.97C14.2361 127.97 15.1041 129.622 15.1041 131.974C15.1041 134.326 14.2361 135.978 12.6121 135.978C10.9741 135.978 10.1201 134.326 10.1201 131.974ZM17.4988 131.974C17.4988 135.04 18.9408 137.154 21.3348 137.154C23.7148 137.154 25.1568 135.04 25.1568 131.974C25.1568 128.908 23.7148 126.794 21.3348 126.794C18.9408 126.794 17.4988 128.908 17.4988 131.974ZM18.8428 131.974C18.8428 129.622 19.6968 127.97 21.3348 127.97C22.9588 127.97 23.8268 129.622 23.8268 131.974C23.8268 134.326 22.9588 135.978 21.3348 135.978C19.6968 135.978 18.8428 134.326 18.8428 131.974Z" fill="#4D5760"/>
<path d="M4.186 62.794C2.366 62.794 0.994 63.872 0.994 65.482C0.994 66.49 1.568 67.274 2.562 67.666C1.372 68.03 0.476 68.954 0.476 70.228C0.476 71.992 2.044 73.14 4.186 73.14C6.342 73.14 7.91 71.992 7.91 70.228C7.91 68.954 7.014 68.03 5.81 67.666C6.818 67.274 7.392 66.49 7.392 65.482C7.392 63.872 6.02 62.794 4.186 62.794ZM4.186 67.134C3.01 67.134 2.198 66.49 2.198 65.496C2.198 64.516 3.01 63.858 4.186 63.858C5.376 63.858 6.174 64.516 6.174 65.496C6.174 66.49 5.376 67.134 4.186 67.134ZM4.186 68.24C5.6 68.24 6.608 69.024 6.608 70.144C6.608 71.292 5.6 72.076 4.186 72.076C2.772 72.076 1.792 71.292 1.792 70.144C1.792 69.024 2.772 68.24 4.186 68.24ZM8.78981 67.974C8.78981 71.04 10.2318 73.154 12.6258 73.154C15.0058 73.154 16.4478 71.04 16.4478 67.974C16.4478 64.908 15.0058 62.794 12.6258 62.794C10.2318 62.794 8.78981 64.908 8.78981 67.974ZM10.1338 67.974C10.1338 65.622 10.9878 63.97 12.6258 63.97C14.2498 63.97 15.1178 65.622 15.1178 67.974C15.1178 70.326 14.2498 71.978 12.6258 71.978C10.9878 71.978 10.1338 70.326 10.1338 67.974ZM17.5125 67.974C17.5125 71.04 18.9545 73.154 21.3485 73.154C23.7285 73.154 25.1705 71.04 25.1705 67.974C25.1705 64.908 23.7285 62.794 21.3485 62.794C18.9545 62.794 17.5125 64.908 17.5125 67.974ZM18.8565 67.974C18.8565 65.622 19.7105 63.97 21.3485 63.97C22.9725 63.97 23.8405 65.622 23.8405 67.974C23.8405 70.326 22.9725 71.978 21.3485 71.978C19.7105 71.978 18.8565 70.326 18.8565 67.974Z" fill="#4D5760"/>
<path d="M3.08 6.892C2.982 8.054 2.59 8.46 1.4 8.544L0.322 8.614V9.608H2.744V17H4.088V6.892H3.08ZM5.79567 11.974C5.79567 15.04 7.23767 17.154 9.63167 17.154C12.0117 17.154 13.4537 15.04 13.4537 11.974C13.4537 8.908 12.0117 6.794 9.63167 6.794C7.23767 6.794 5.79567 8.908 5.79567 11.974ZM7.13967 11.974C7.13967 9.622 7.99367 7.97 9.63167 7.97C11.2557 7.97 12.1237 9.622 12.1237 11.974C12.1237 14.326 11.2557 15.978 9.63167 15.978C7.99367 15.978 7.13967 14.326 7.13967 11.974ZM14.5183 11.974C14.5183 15.04 15.9603 17.154 18.3543 17.154C20.7343 17.154 22.1763 15.04 22.1763 11.974C22.1763 8.908 20.7343 6.794 18.3543 6.794C15.9603 6.794 14.5183 8.908 14.5183 11.974ZM15.8623 11.974C15.8623 9.622 16.7163 7.97 18.3543 7.97C19.9783 7.97 20.8463 9.622 20.8463 11.974C20.8463 14.326 19.9783 15.978 18.3543 15.978C16.7163 15.978 15.8623 14.326 15.8623 11.974ZM23.241 11.974C23.241 15.04 24.683 17.154 27.077 17.154C29.457 17.154 30.899 15.04 30.899 11.974C30.899 8.908 29.457 6.794 27.077 6.794C24.683 6.794 23.241 8.908 23.241 11.974ZM24.585 11.974C24.585 9.622 25.439 7.97 27.077 7.97C28.701 7.97 29.569 9.622 29.569 11.974C29.569 14.326 28.701 15.978 27.077 15.978C25.439 15.978 24.585 14.326 24.585 11.974Z" fill="#4D5760"/>
<path d="M115 304L228.571 45.7753L342.143 33.4727L455.714 146.279L569.286 106.983L683.5 23L796.429 254.19L910 236.214" stroke="#FF5403" stroke-width="2"/>
<path d="M228.571 45.7753L115 304H910V236.214L796.429 254.19L683.5 23L569.286 106.983L455.714 146.279L342.143 33.4727L228.571 45.7753Z" fill="url(#paint0_linear_703_2258)"/>
<defs>
<linearGradient id="paint0_linear_703_2258" x1="512.5" y1="23" x2="512.5" y2="304" gradientUnits="userSpaceOnUse">
<stop stop-color="#FF5403" stop-opacity="0.2"/>
<stop offset="1" stop-color="#FF5403" stop-opacity="0"/>
</linearGradient>
</defs>
</svg>
